HIERARCHY
ROOT Hips
{
 OFFSET 0.000000 0.000000 0.000000
 CHANNELS 6 Xposition Yposition Zposition Yrotation Xrotation Zrotation
 JOINT Chest
 {
  OFFSET 0.000000 8.841881 -6.654894
  CHANNELS 3 Yrotation Xrotation Zrotation
  JOINT Chest2
  {
   OFFSET 0.000000 7.072353 0.028336
   CHANNELS 3 Yrotation Xrotation Zrotation
   JOINT Chest3
   {
    OFFSET 0.000000 10.125157 -0.014641
    CHANNELS 3 Yrotation Xrotation Zrotation
    JOINT Chest4
    {
     OFFSET 0.000000 10.441534 -0.016102
     CHANNELS 3 Yrotation Xrotation Zrotation
     JOINT Neck
     {
      OFFSET 0.000000 16.849355 0.013667
      CHANNELS 3 Yrotation Xrotation Zrotation
      JOINT Head
      {
       OFFSET 0.000000 10.107081 0.000000
       CHANNELS 3 Yrotation Xrotation Zrotation
       End Site
       {
        OFFSET 0.000000 15.162723 0.000000
       }
      }
     }
     JOINT RightCollar
     {
      OFFSET -2.775264 10.553866 0.006834
      CHANNELS 3 Yrotation Xrotation Zrotation
      JOINT RightShoulder
      {
       OFFSET -16.020521 0.000000 0.000000
       CHANNELS 3 Yrotation Xrotation Zrotation
       JOINT RightElbow
       {
        OFFSET -23.902096 0.000000 0.000000
        CHANNELS 3 Yrotation Xrotation Zrotation
        JOINT RightWrist
        {
         OFFSET -23.631001 0.000000 -0.000566
         CHANNELS 3 Yrotation Xrotation Zrotation
         End Site
         {
          OFFSET -18.828190 0.690323 0.103033
         }
        }
       }
      }
     }
     JOINT LeftCollar
     {
      OFFSET 2.775264 10.553866 0.006834
      CHANNELS 3 Yrotation Xrotation Zrotation
      JOINT LeftShoulder
      {
       OFFSET 16.020521 0.000000 0.000000
       CHANNELS 3 Yrotation Xrotation Zrotation
       JOINT LeftElbow
       {
        OFFSET 23.902096 0.000000 0.000000
        CHANNELS 3 Yrotation Xrotation Zrotation
        JOINT LeftWrist
        {
         OFFSET 23.631001 0.000000 -0.000566
         CHANNELS 3 Yrotation Xrotation Zrotation
         End Site
         {
          OFFSET 18.828190 0.690323 0.103033
         }
        }
       }
      }
     }
    }
   }
  }
 }
 JOINT RightHip
 {
  OFFSET -9.646452 0.046004 -0.007286
  CHANNELS 3 Yrotation Xrotation Zrotation
  JOINT RightKnee
  {
   OFFSET 0.000000 -48.923989 0.009793
   CHANNELS 3 Yrotation Xrotation Zrotation
   JOINT RightAnkle
   {
    OFFSET 0.000000 -37.831989 0.111451
    CHANNELS 3 Yrotation Xrotation Zrotation
    JOINT RightToe
    {
     OFFSET 0.000000 -8.084683 17.519885
     CHANNELS 3 Yrotation Xrotation Zrotation
     End Site
     {
      OFFSET 0.000000 -1.047441 5.170765
     }
    }
   }
  }
 }
 JOINT LeftHip
 {
  OFFSET 9.646452 0.044016 -0.006971
  CHANNELS 3 Yrotation Xrotation Zrotation
  JOINT LeftKnee
  {
   OFFSET 0.000000 -48.923989 0.009793
   CHANNELS 3 Yrotation Xrotation Zrotation
   JOINT LeftAnkle
   {
    OFFSET 0.000000 -37.831989 0.111451
    CHANNELS 3 Yrotation Xrotation Zrotation
    JOINT LeftToe
    {
     OFFSET 0.000000 -8.084683 17.519885
     CHANNELS 3 Yrotation Xrotation Zrotation
     End Site
     {
      OFFSET 0.000000 -1.047441 5.170765
     }
    }
   }
  }
 }
}
MOTION
Frames: 17
Frame Time: 0.004167
13.101032 95.964775 32.142320 4.409820 9.437856 0.241680 0.269561 1.849733 0.371977 0.090950 -12.641751 0.176333 0.063084 0.175095 0.137120 0.024681 9.549368 0.039633 -0.731936 -2.514952 -0.276475 -1.351197 -4.673271 -0.488387 -0.954218 -3.878324 8.274377 -8.014830 -6.805245 73.341417 5.635783 -5.561941 0.415771 -5.023480 1.574831 1.959985 -2.253372 -5.508211 -8.533189 10.071721 -7.175867 -72.247422 -6.874153 -1.755976 -4.759730 1.932637 1.300975 -2.331137 -1.601960 -3.814941 -0.622374 0.136991 0.543797 0.036798 0.639087 -6.044609 1.158827 0.000000 0.000000 0.000000 3.551262 -6.664533 2.572111 -0.241675 4.310475 -0.373648 1.626718 -7.943455 -3.060693 0.000000 0.000000 -0.000000
13.115746 95.965261 32.129029 4.407045 9.427886 0.242622 0.270306 1.854463 0.364742 0.092053 -12.639504 0.172783 0.063820 0.176667 0.134801 0.024778 9.549817 0.038960 -0.730729 -2.511429 -0.272168 -1.349114 -4.666681 -0.480455 -0.945954 -3.869206 8.275164 -8.004121 -6.818575 73.355922 5.644426 -5.562423 0.412850 -5.024232 1.573114 1.960105 -2.252954 -5.494049 -8.523285 10.058625 -7.181556 -72.267613 -6.876291 -1.749509 -4.756996 1.931165 1.302399 -2.332782 -1.608376 -3.815348 -0.638222 0.116105 0.547968 0.046128 0.672148 -6.040835 1.170269 0.000000 -0.000000 0.000000 3.556056 -6.655828 2.557658 -0.244033 4.298317 -0.367697 1.626210 -7.934728 -3.053812 0.000000 -0.000000 0.000000
13.130702 95.965720 32.115614 4.404270 9.417859 0.243594 0.271063 1.859198 0.357425 0.093169 -12.637255 0.169194 0.064566 0.178241 0.132456 0.024876 9.550267 0.038280 -0.729517 -2.507948 -0.267788 -1.347021 -4.660169 -0.472388 -0.937464 -3.859878 8.275943 -7.993119 -6.832061 73.370718 5.653082 -5.562895 0.409771 -5.025051 1.571402 1.960176 -2.252645 -5.479828 -8.513373 10.045137 -7.187501 -72.288160 -6.878651 -1.742941 -4.754246 1.929611 1.303793 -2.334491 -1.614699 -3.815682 -0.654403 0.094157 0.551960 0.055686 0.706268 -6.037001 1.182040 0.000000 -0.000000 -0.000000 3.560959 -6.646830 2.542920 -0.246382 4.285505 -0.361565 1.625589 -7.925691 -3.046873 -0.000000 -0.000000 -0.000000
13.145827 95.966161 32.102113 4.401493 9.407793 0.244587 0.271828 1.863937 0.350052 0.094296 -12.635005 0.165576 0.065319 0.179816 0.130093 0.024976 9.550717 0.037594 -0.728299 -2.504498 -0.263357 -1.344921 -4.653712 -0.464226 -0.928816 -3.850403 8.276719 -7.981914 -6.845660 73.385716 5.661748 -5.563359 0.406580 -5.025918 1.569694 1.960214 -2.252411 -5.465564 -8.503455 10.031374 -7.193625 -72.308954 -6.881166 -1.736300 -4.751485 1.928000 1.305165 -2.336244 -1.620956 -3.815964 -0.670819 0.071464 0.555831 0.065402 0.741127 -6.033127 1.194041 -0.000000 0.000000 0.000000 3.565937 -6.637627 2.527985 -0.248726 4.272236 -0.355308 1.624889 -7.916439 -3.039893 -0.000000 -0.000000 0.000000
13.161049 95.966590 32.088562 4.398716 9.397703 0.245593 0.272597 1.868677 0.342646 0.095428 -12.632753 0.161943 0.066075 0.181391 0.127720 0.025076 9.551167 0.036905 -0.727078 -2.501064 -0.258897 -1.342815 -4.647287 -0.456011 -0.920076 -3.840846 8.277494 -7.970595 -6.859326 73.400827 5.670418 -5.563816 0.403323 -5.026811 1.567988 1.960232 -2.252217 -5.451276 -8.493533 10.017451 -7.199854 -72.329888 -6.883768 -1.729618 -4.748717 1.926357 1.306525 -2.338022 -1.627174 -3.816219 -0.687370 0.048346 0.559637 0.075206 0.776410 -6.029231 1.206176 -0.000000 -0.000000 -0.000000 3.570958 -6.628307 2.512938 -0.251069 4.258707 -0.348978 1.624144 -7.907062 -3.032890 -0.000000 -0.000000 -0.000000
13.176295 95.967017 32.074998 4.395939 9.387608 0.246602 0.273368 1.873418 0.335232 0.096561 -12.630502 0.158306 0.066833 0.182967 0.125344 0.025176 9.551617 0.036215 -0.725856 -2.497635 -0.254430 -1.340707 -4.640870 -0.447781 -0.911311 -3.831270 8.278269 -7.959250 -6.873015 73.415961 5.679090 -5.564271 0.400049 -5.027712 1.566282 1.960245 -2.252029 -5.436982 -8.483611 10.003487 -7.206111 -72.350852 -6.886389 -1.722924 -4.745947 1.924706 1.307883 -2.339806 -1.633380 -3.816469 -0.703956 0.025122 0.563437 0.085026 0.811798 -6.025332 1.218347 -0.000000 0.000000 0.000000 3.575991 -6.618956 2.497863 -0.253416 4.245112 -0.342631 1.623388 -7.897654 -3.025881 0.000000 -0.000000 -0.000000
13.191492 95.967450 32.061459 4.393162 9.377525 0.247606 0.274137 1.878158 0.327834 0.097693 -12.628251 0.154677 0.067589 0.184542 0.122973 0.025276 9.552067 0.035527 -0.724634 -2.494197 -0.249977 -1.338598 -4.634439 -0.439579 -0.902590 -3.821738 8.279047 -7.947967 -6.886682 73.431030 5.687758 -5.564726 0.396803 -5.028598 1.564575 1.960267 -2.251813 -5.422701 -8.473691 9.989598 -7.212323 -72.371740 -6.888961 -1.716250 -4.743180 1.923071 1.309247 -2.341576 -1.639600 -3.816737 -0.720476 0.002110 0.567286 0.094794 0.846974 -6.021451 1.230458 -0.000000 0.000000 -0.000000 3.581001 -6.609664 2.482847 -0.255770 4.231649 -0.336319 1.622656 -7.888308 -3.018884 -0.000000 0.000000 -0.000000
13.206569 95.967895 32.047983 4.390386 9.367470 0.248595 0.274902 1.882894 0.320476 0.098818 -12.626001 0.151068 0.068341 0.186117 0.120616 0.025376 9.552517 0.034843 -0.723414 -2.490740 -0.245561 -1.336490 -4.627970 -0.431443 -0.893978 -3.812314 8.279830 -7.936837 -6.900282 73.445945 5.696418 -5.565183 0.393632 -5.029451 1.562865 1.960313 -2.251534 -5.408450 -8.463776 9.975900 -7.218412 -72.392444 -6.891416 -1.709626 -4.740420 1.921476 1.310628 -2.343314 -1.645863 -3.817046 -0.736830 -0.020370 0.571240 0.104438 0.881620 -6.017605 1.242411 0.000000 -0.000000 0.000000 3.585958 -6.600517 2.467974 -0.258136 4.218514 -0.330098 1.621981 -7.879117 -3.011918 0.000000 -0.000000 0.000000
13.221452 95.968363 32.034605 4.387610 9.357460 0.249561 0.275659 1.887627 0.313184 0.099933 -12.623753 0.147490 0.069087 0.187690 0.118279 0.025475 9.552966 0.034165 -0.722197 -2.487249 -0.241202 -1.334387 -4.621440 -0.423415 -0.885543 -3.803062 8.280621 -7.925947 -6.913769 73.460618 5.705067 -5.565645 0.390584 -5.030249 1.561152 1.960398 -2.251159 -5.394248 -8.453868 9.962511 -7.224303 -72.412856 -6.893688 -1.703082 -4.737672 1.919947 1.312035 -2.345001 -1.652195 -3.817419 -0.752919 -0.042000 0.575356 0.113889 0.915418 -6.013814 1.254108 -0.000000 -0.000000 -0.000000 3.590828 -6.591603 2.453329 -0.260516 4.205903 -0.324022 1.621399 -7.870172 -3.004998 -0.000000 0.000000 0.000000
13.236069 95.968860 32.021364 4.384835 9.347513 0.250495 0.276404 1.892352 0.305981 0.101034 -12.621508 0.143957 0.069822 0.189260 0.115971 0.025572 9.553415 0.033495 -0.720986 -2.483712 -0.236923 -1.332290 -4.614827 -0.415536 -0.877352 -3.794044 8.281422 -7.915385 -6.927098 73.474960 5.713700 -5.566115 0.387705 -5.030972 1.559432 1.960534 -2.250653 -5.380113 -8.443970 9.949547 -7.229920 -72.432869 -6.895709 -1.696650 -4.734941 1.918506 1.313476 -2.346617 -1.658623 -3.817879 -0.768643 -0.062460 0.579688 0.123078 0.948052 -6.010096 1.265451 0.000000 0.000000 0.000000 3.595579 -6.583010 2.438998 -0.262915 4.194012 -0.318143 1.620943 -7.861567 -2.998144 -0.000000 -0.000000 -0.000000
13.250348 95.969395 32.008296 4.382061 9.337645 0.251388 0.277136 1.897070 0.298892 0.102116 -12.619267 0.140479 0.070546 0.190829 0.113699 0.025668 9.553863 0.032835 -0.719780 -2.480117 -0.232745 -1.330201 -4.608106 -0.407845 -0.869472 -3.785325 8.282235 -7.905242 -6.940223 73.488884 5.722312 -5.566596 0.385042 -5.031600 1.557706 1.960738 -2.249982 -5.366063 -8.434084 9.937125 -7.235188 -72.452377 -6.897410 -1.690360 -4.732230 1.917179 1.314963 -2.348143 -1.665174 -3.818450 -0.783902 -0.081431 0.584292 0.131933 0.979203 -6.006470 1.276342 0.000000 -0.000000 -0.000000 3.600180 -6.574826 2.425066 -0.265336 4.183038 -0.312518 1.620646 -7.853394 -2.991372 -0.000000 0.000000 -0.000000
13.264215 95.969975 31.995439 4.379290 9.327874 0.252230 0.277851 1.901779 0.291942 0.103176 -12.617031 0.137070 0.071254 0.192394 0.111472 0.025761 9.554310 0.032188 -0.718584 -2.476452 -0.228690 -1.328124 -4.601256 -0.400382 -0.861972 -3.776966 8.283061 -7.895604 -6.953099 73.502300 5.730901 -5.567092 0.382642 -5.032113 1.555970 1.961022 -2.249112 -5.352117 -8.424213 9.925361 -7.240029 -72.471271 -6.898726 -1.684244 -4.729545 1.915990 1.316503 -2.349561 -1.671877 -3.819153 -0.798595 -0.098595 0.589222 0.140386 1.008554 -6.002954 1.286684 -0.000000 -0.000000 0.000000 3.604597 -6.567139 2.411618 -0.267782 4.173177 -0.307198 1.620544 -7.845747 -2.984700 -0.000000 -0.000000 -0.000000
13.277598 95.970609 31.982831 4.376520 9.318217 0.253014 0.278545 1.906476 0.285153 0.104209 -12.614799 0.133740 0.071945 0.193955 0.109296 0.025852 9.554756 0.031557 -0.717396 -2.472702 -0.224779 -1.326059 -4.594251 -0.393190 -0.854917 -3.769033 8.283904 -7.886561 -6.965678 73.515121 5.739461 -5.567604 0.380553 -5.032490 1.554224 1.961402 -2.248009 -5.338293 -8.414360 9.914373 -7.244367 -72.489444 -6.899588 -1.678331 -4.726889 1.914963 1.318106 -2.350851 -1.678757 -3.820012 -0.812623 -0.113631 0.594532 0.148366 1.035788 -5.999568 1.296378 -0.000000 -0.000000 0.000000 3.608799 -6.560037 2.398738 -0.270256 4.164626 -0.302239 1.620670 -7.838718 -2.978146 0.000000 0.000000 0.000000
13.290425 95.971305 31.970507 4.373753 9.308690 0.253730 0.279215 1.911161 0.278552 0.105211 -12.612573 0.130502 0.072615 0.195513 0.107179 0.025940 9.555201 0.030942 -0.716221 -2.468857 -0.221035 -1.324009 -4.587071 -0.386307 -0.848375 -3.761588 8.284764 -7.878201 -6.977916 73.527259 5.747989 -5.568136 0.378821 -5.032710 1.552467 1.961892 -2.246639 -5.324608 -8.404527 9.904278 -7.248127 -72.506790 -6.899929 -1.672654 -4.724269 1.914123 1.319781 -2.351994 -1.685842 -3.821050 -0.825885 -0.126221 0.600277 0.155805 1.060587 -5.996329 1.305326 0.000000 0.000000 0.000000 3.612753 -6.553606 2.386513 -0.272761 4.157580 -0.297695 1.621058 -7.832399 -2.971726 -0.000000 0.000000 -0.000000
13.303720 95.972140 31.957420 4.370706 9.298572 0.254478 0.279876 1.916219 0.271573 0.106249 -12.610170 0.127079 0.073308 0.197195 0.104939 0.026029 9.555682 0.030292 -0.714902 -2.464580 -0.217186 -1.321698 -4.579086 -0.379236 -0.841878 -3.754215 8.285742 -7.869857 -6.990894 73.539723 5.757397 -5.568722 0.377419 -5.032719 1.550518 1.962591 -2.244837 -5.309833 -8.393883 9.894357 -7.251704 -72.524724 -6.899700 -1.666907 -4.721451 1.913441 1.321673 -2.353055 -1.694102 -3.822518 -0.839444 -0.136639 0.607062 0.163273 1.084632 -5.992955 1.314167 -0.000000 0.000000 -0.000000 3.616733 -6.547368 2.373992 -0.275448 4.151407 -0.293366 1.621777 -7.826238 -2.964871 -0.000000 -0.000000 0.000000
13.316501 95.973055 31.944524 4.367577 9.288675 0.255238 0.280452 1.921260 0.264716 0.107232 -12.607775 0.123718 0.073965 0.198870 0.102734 0.026109 9.556160 0.029652 -0.713500 -2.460201 -0.213533 -1.319225 -4.570915 -0.372535 -0.835913 -3.747567 8.286779 -7.862103 -7.003706 73.551639 5.767106 -5.569305 0.376492 -5.032485 1.548506 1.963472 -2.242741 -5.295019 -8.383236 9.885347 -7.254956 -72.541952 -6.898928 -1.661624 -4.718640 1.912974 1.323629 -2.353951 -1.703145 -3.824398 -0.852326 -0.143848 0.614401 0.170231 1.106113 -5.989678 1.322241 -0.000000 -0.000000 0.000000 3.620423 -6.541755 2.362101 -0.278067 4.146357 -0.289662 1.622762 -7.820599 -2.958063 0.000000 -0.000000 -0.000000
13.328816 95.974037 31.931819 4.364393 9.278954 0.255991 0.280965 1.926285 0.257983 0.108173 -12.605387 0.120418 0.074592 0.200541 0.100565 0.026182 9.556638 0.029023 -0.712045 -2.455733 -0.210048 -1.316647 -4.562580 -0.366149 -0.830415 -3.741508 8.287860 -7.854893 -7.016329 73.563039 5.777010 -5.569890 0.375961 -5.032054 1.546449 1.964500 -2.240389 -5.280211 -8.372592 9.877141 -7.257864 -72.558527 -6.897680 -1.656702 -4.715841 1.912692 1.325644 -2.354704 -1.712756 -3.826593 -0.864588 -0.148377 0.622202 0.176728 1.125347 -5.986497 1.329638 0.000000 0.000000 0.000000 3.623866 -6.536707 2.350776 -0.280646 4.142386 -0.286466 1.623982 -7.815464 -2.951317 -0.000000 -0.000000 -0.000000
